<svg xmlns="http://www.w3.org/2000/svg" width="20.623" height="20.623" viewBox="0 0 20.623 20.623">
  <path id="Icon_awesome-linkedin" data-name="Icon awesome-linkedin" d="M19.15,2.25H1.468A1.479,1.479,0,0,0,0,3.737V21.386a1.479,1.479,0,0,0,1.468,1.487H19.15a1.483,1.483,0,0,0,1.473-1.487V3.737A1.483,1.483,0,0,0,19.15,2.25ZM6.233,19.927H3.176V10.085H6.238v9.842ZM4.7,8.741A1.772,1.772,0,1,1,6.477,6.968,1.773,1.773,0,0,1,4.7,8.741ZM17.691,19.927H14.634V15.139c0-1.142-.023-2.61-1.588-2.61-1.593,0-1.837,1.243-1.837,2.527v4.87H8.153V10.085h2.932v1.344h.041a3.219,3.219,0,0,1,2.9-1.588c3.093,0,3.669,2.039,3.669,4.691Z" transform="translate(0 -2.25)" fill="#e03116"/>
</svg>
