<svg xmlns="http://www.w3.org/2000/svg" width="25.039" height="20.375" viewBox="0 0 25.039 20.375">
  <path id="Icon_ionic-logo-twitter" data-name="Icon ionic-logo-twitter" d="M26.453,6.914a10.386,10.386,0,0,1-2.95.812,5.155,5.155,0,0,0,2.26-2.844A10.208,10.208,0,0,1,22.5,6.129a5.136,5.136,0,0,0-8.888,3.513,5.029,5.029,0,0,0,.133,1.173A14.558,14.558,0,0,1,3.154,5.439a5.147,5.147,0,0,0,1.6,6.866,5.017,5.017,0,0,1-2.335-.642v.064a5.142,5.142,0,0,0,4.123,5.041,5.171,5.171,0,0,1-1.353.18,4.846,4.846,0,0,1-.966-.1,5.145,5.145,0,0,0,4.8,3.571,10.3,10.3,0,0,1-6.383,2.2,10.413,10.413,0,0,1-1.226-.074,14.359,14.359,0,0,0,7.864,2.324A14.529,14.529,0,0,0,23.906,10.241c0-.223-.005-.446-.016-.663A10.458,10.458,0,0,0,26.453,6.914Z" transform="translate(-1.414 -4.5)" fill="#e03116"/>
</svg>
