<svg xmlns="http://www.w3.org/2000/svg" width="33.123" height="23.291" viewBox="0 0 33.123 23.291">
  <path id="Icon_awesome-youtube" data-name="Icon awesome-youtube" d="M33.483,8.144A4.162,4.162,0,0,0,30.554,5.2c-2.583-.7-12.942-.7-12.942-.7s-10.358,0-12.942.7A4.162,4.162,0,0,0,1.742,8.144a43.663,43.663,0,0,0-.692,8.025,43.663,43.663,0,0,0,.692,8.025,4.1,4.1,0,0,0,2.929,2.9c2.583.7,12.942.7,12.942.7s10.358,0,12.942-.7a4.1,4.1,0,0,0,2.929-2.9,43.662,43.662,0,0,0,.692-8.025,43.662,43.662,0,0,0-.692-8.025ZM14.225,21.094v-9.85l8.658,4.925-8.658,4.925Z" transform="translate(-1.051 -4.5)" fill="#e03116"/>
</svg>
